<svg width="43" height="39" viewBox="0 0 43 39" fill="none" xmlns="http://www.w3.org/2000/svg">
<path d="M19.233 11.63C18.2331 11.6248 17.2421 11.818 16.3174 12.1982C15.3926 12.5785 14.5524 13.1383 13.8453 13.8453C13.1383 14.5524 12.5785 15.3926 12.1982 16.3174C11.818 17.2421 11.6248 18.2331 11.63 19.233C11.63 23.412 15.004 26.785 19.233 26.785C22.003 26.785 24.318 25.325 25.678 23.16C26.534 24.7495 27.4405 26.3113 28.396 27.843C29.706 30.209 31.216 32.626 31.366 32.928H35.898C35.748 32.726 34.841 31.216 34.035 29.806C33.532 28.95 32.978 28.044 32.425 26.986C33.784 24.62 34.539 22.053 34.539 19.233C34.539 10.775 27.692 3.877 19.233 3.877C10.724 3.877 3.877 10.775 3.877 19.233C3.877 27.691 10.724 34.539 19.233 34.539C20.492 34.539 21.7 34.388 22.908 34.086L24.922 37.56C23.059 38.114 21.146 38.416 19.233 38.416C8.61 38.416 0 29.856 0 19.233C0 8.61 8.61 0 19.233 0C29.806 0 38.416 8.61 38.416 19.233C38.416 21.901 37.912 24.419 36.855 26.785C38.315 29.353 39.675 31.87 40.832 33.733C41.4032 34.7926 42.0079 35.8337 42.645 36.855H29.101C28.85 36.351 26.634 32.575 24.671 29.252C23.009 30.209 21.197 30.662 19.233 30.662C12.939 30.662 7.753 25.527 7.753 19.233C7.753 12.939 12.939 7.753 19.233 7.753C25.527 7.753 30.663 12.939 30.663 19.233C30.663 20.4917 30.4613 21.7 30.058 22.858L27.64 18.73C26.381 16.565 25.072 14.5 24.871 14.148C24.1604 13.356 23.2911 12.7225 22.3196 12.2887C21.348 11.8549 20.297 11.6304 19.233 11.63Z" fill="#5171FF"/>
</svg>
