<svg width="250" height="35" viewBox="0 0 300 42" fill="none" xmlns="http://www.w3.org/2000/svg">
<path d="M22.874 13.1883C21.6849 13.1828 20.5064 13.3904 19.4066 13.7991C18.3068 14.2078 17.3076 14.8094 16.4667 15.5693C15.6259 16.3292 14.9601 17.2321 14.5079 18.226C14.0556 19.2198 13.8259 20.2849 13.832 21.3595C13.832 25.8508 17.844 29.4764 22.874 29.4764C26.168 29.4764 28.922 27.9076 30.539 25.5806C31.5572 27.2888 32.6354 28.9672 33.772 30.6132C35.329 33.1562 37.126 35.7534 37.305 36.0788H42.695C42.515 35.8619 41.437 34.2388 40.479 32.7234C39.88 31.8034 39.222 30.8292 38.563 29.6933C40.18 27.1494 41.078 24.3904 41.078 21.3595C41.078 12.2683 32.934 4.85539 22.874 4.85539C12.754 4.85539 4.611 12.2683 4.611 21.3595C4.611 30.4506 12.754 37.8102 22.874 37.8102C24.371 37.8102 25.808 37.6476 27.246 37.3222L29.641 41.0572C27.425 41.6518 25.15 41.9771 22.874 41.9771C10.24 41.9771 0 32.7776 0 21.3595C0 9.94135 10.24 0.688477 22.874 0.688477C35.45 0.688477 45.69 9.94225 45.69 21.3595C45.69 24.2278 45.09 26.9334 43.833 29.4764C45.57 32.2363 47.187 34.9419 48.563 36.9445C49.2428 38.0829 49.9621 39.2016 50.72 40.299H34.61C34.31 39.7586 31.676 35.6992 29.34 32.1278C27.364 33.1562 25.209 33.6433 22.873 33.6433C15.388 33.6433 9.221 28.1236 9.221 21.3595C9.221 14.5953 15.388 9.0223 22.873 9.0223C30.358 9.0223 36.466 14.5953 36.466 21.3595C36.466 22.712 36.2263 24.0109 35.747 25.2562L32.873 20.8191C31.376 18.4921 29.819 16.2735 29.58 15.894C28.735 15.0426 27.701 14.3617 26.5454 13.8955C25.3898 13.4293 24.1385 13.1883 22.873 13.1883M81.976 0.688477C94.551 0.688477 104.79 9.94225 104.79 21.3595C104.79 32.7767 94.55 41.978 81.976 41.978C69.341 41.978 59.102 32.7785 59.102 21.3604C59.102 9.94225 69.342 0.688477 81.976 0.688477ZM81.976 37.8102C92.036 37.8102 100.18 30.4506 100.18 21.3595C100.18 12.2683 92.036 4.85539 81.976 4.85539C71.856 4.85539 63.713 12.2683 63.713 21.3595C63.713 30.4506 71.856 37.8102 81.976 37.8102ZM81.976 9.0223C89.461 9.0223 95.569 14.5953 95.569 21.3595C95.569 28.1236 89.46 33.6433 81.976 33.6433C74.492 33.6433 68.323 28.1245 68.323 21.3595C68.323 14.5944 74.491 9.0223 81.976 9.0223ZM81.976 29.4764C83.156 29.4778 84.3247 29.2688 85.4151 28.8614C86.5056 28.454 87.4964 27.8562 88.3308 27.1022C89.1651 26.3482 89.8267 25.4528 90.2775 24.4674C90.7283 23.4819 90.9596 22.4258 90.958 21.3595C90.958 16.8139 86.946 13.1883 81.976 13.1883C80.7869 13.1828 79.6084 13.3904 78.5086 13.7991C77.4088 14.2078 76.4096 14.8094 75.5687 15.5693C74.7279 16.3292 74.0621 17.2321 73.6099 18.226C73.1576 19.2198 72.9279 20.2849 72.934 21.3595C72.934 25.8508 76.946 29.4764 81.976 29.4764ZM155.449 40.299H139.281L133.832 31.8043H123.353V40.299H109.401V19.196L143.653 19.2503C147.545 19.2503 150.659 16.3819 150.659 12.919C150.663 12.0866 150.484 11.2618 150.134 10.492C149.783 9.72234 149.267 9.02301 148.616 8.43441C147.964 7.84581 147.19 7.37958 146.339 7.06264C145.487 6.74569 144.574 6.58429 143.653 6.58776H114.072V10.808H143.652C144.91 10.8622 145.868 11.7822 145.868 12.919C145.868 14.0558 144.91 14.9749 143.653 15.0291H109.4V2.36572H143.652C150.119 2.36572 155.328 7.07394 155.328 12.9181C155.328 18.708 150.118 23.4705 143.652 23.4705L114.071 23.4163V36.0788H118.741V27.5823H136.526C138.442 30.7217 141.676 35.5374 141.975 36.0788H147.365C146.885 35.4832 144.131 31.0452 141.915 27.5823H147.305C149.28 30.6675 151.256 33.8602 152.873 36.2405L155.449 40.299ZM201.557 2.36572H217.725C216.826 3.71855 210.778 13.2425 204.97 22.3879C201.557 27.7449 197.784 33.7518 193.533 40.299H188.143C188.623 39.5959 193.953 31.0994 199.222 22.8749C202.275 18.0583 205.748 12.5937 209.641 6.58686H204.251C196.707 18.2752 192.335 25.2562 185.449 36.0788C185.029 35.429 163.772 2.41995 163.832 2.36572H180L188.144 15.0282L185.449 19.2484L177.305 6.58686H171.916C173.114 8.31832 184.311 25.9592 185.449 27.6365L197.186 9.23828L201.557 2.36572ZM237.725 40.299H223.713V2.36572H237.725V31.8576H233.054V6.58686H228.384V36.0788H237.724L237.725 40.299ZM275.689 27.6365L278.383 23.4163L286.527 36.0788H291.917C290.719 34.3473 279.341 16.7597 278.383 15.0282L266.647 33.4273L262.275 40.299H246.108C247.006 38.9462 253.054 29.4222 258.862 20.2777C262.275 14.9207 266.048 8.91386 270.299 2.36663H275.689L264.551 19.7898L254.191 36.0788H259.581C266.946 24.3362 271.557 17.4094 278.383 6.58686C278.803 7.23661 299.88 40.2448 300 40.299H283.832L275.689 27.6365Z" fill="#1E3A8A"/>
</svg>
