<svg width="250" height="35" viewBox="0 0 300 44" fill="none" xmlns="http://www.w3.org/2000/svg">
<path d="M22.874 13.4501C21.6849 13.4443 20.5064 13.6621 19.4066 14.0908C18.3068 14.5195 17.3076 15.1507 16.4667 15.9479C15.6259 16.745 14.9601 17.6923 14.5079 18.7349C14.0556 19.7775 13.8259 20.8948 13.832 22.0221C13.832 26.7338 17.844 30.5373 22.874 30.5373C26.168 30.5373 28.922 28.8916 30.539 26.4504C31.5572 28.2424 32.6354 30.0031 33.772 31.73C35.329 34.3977 37.126 37.1224 37.305 37.4636H42.695C42.515 37.2361 41.437 35.5335 40.479 33.9436C39.88 32.9785 39.222 31.9565 38.563 30.7649C40.18 28.0962 41.078 25.2018 41.078 22.0221C41.078 12.485 32.934 4.70828 22.874 4.70828C12.754 4.70828 4.611 12.485 4.611 22.0221C4.611 31.5593 12.754 39.2801 22.874 39.2801C24.371 39.2801 25.808 39.1094 27.246 38.7681L29.641 42.6863C27.425 43.3101 25.15 43.6514 22.874 43.6514C10.24 43.6514 0 34.0005 0 22.0221C0 10.0438 10.24 0.336914 22.874 0.336914C35.45 0.336914 45.69 10.0447 45.69 22.0221C45.69 25.0312 45.09 27.8696 43.833 30.5373C45.57 33.4326 47.187 36.271 48.563 38.3719C49.2428 39.5661 49.9621 40.7397 50.72 41.8909H34.61C34.31 41.324 31.676 37.0655 29.34 33.3189C27.364 34.3977 25.209 34.9087 22.873 34.9087C15.388 34.9087 9.221 29.1181 9.221 22.0221C9.221 14.9261 15.388 9.07964 22.873 9.07964C30.358 9.07964 36.466 14.9261 36.466 22.0221C36.466 23.441 36.2263 24.8037 35.747 26.11L32.873 21.4552C31.376 19.014 29.819 16.6866 29.58 16.2885C28.735 15.3953 27.701 14.681 26.5454 14.1919C25.3898 13.7029 24.1385 13.4501 22.873 13.4501M81.976 0.336914C94.551 0.336914 104.79 10.0447 104.79 22.0221C104.79 33.9995 94.55 43.6524 81.976 43.6524C69.341 43.6524 59.102 34.0014 59.102 22.0231C59.102 10.0447 69.342 0.336914 81.976 0.336914ZM81.976 39.2801C92.036 39.2801 100.18 31.5593 100.18 22.0221C100.18 12.485 92.036 4.70828 81.976 4.70828C71.856 4.70828 63.713 12.485 63.713 22.0221C63.713 31.5593 71.856 39.2801 81.976 39.2801ZM81.976 9.07964C89.461 9.07964 95.569 14.9261 95.569 22.0221C95.569 29.1181 89.46 34.9087 81.976 34.9087C74.492 34.9087 68.323 29.1191 68.323 22.0221C68.323 14.9252 74.491 9.07964 81.976 9.07964ZM81.976 30.5373C83.156 30.5388 84.3247 30.3196 85.4151 29.8922C86.5056 29.4648 87.4964 28.8376 88.3308 28.0466C89.1651 27.2556 89.8267 26.3163 90.2775 25.2825C90.7283 24.2487 90.9596 23.1408 90.958 22.0221C90.958 17.2536 86.946 13.4501 81.976 13.4501C80.7869 13.4443 79.6084 13.6621 78.5086 14.0908C77.4088 14.5195 76.4096 15.1507 75.5687 15.9479C74.7279 16.745 74.0621 17.6923 73.6099 18.7349C73.1576 19.7775 72.9279 20.8948 72.934 22.0221C72.934 26.7338 76.946 30.5373 81.976 30.5373ZM155.449 41.8909H139.281L133.832 32.9795H123.353V41.8909H109.401V19.7526L143.653 19.8094C147.545 19.8094 150.659 16.8004 150.659 13.1675C150.663 12.2943 150.484 11.429 150.134 10.6215C149.783 9.81403 149.267 9.08039 148.616 8.46291C147.964 7.84543 147.19 7.35633 146.339 7.02383C145.487 6.69133 144.574 6.52201 143.653 6.52565H114.072V10.953H143.652C144.91 11.0098 145.868 11.9749 145.868 13.1675C145.868 14.3602 144.91 15.3243 143.653 15.3812H109.4V2.09646H143.652C150.119 2.09646 155.328 7.03569 155.328 13.1666C155.328 19.2406 150.118 24.2367 143.652 24.2367L114.071 24.1799V37.4636H118.741V28.5503H136.526C138.442 31.8437 141.676 36.8958 141.975 37.4636H147.365C146.885 36.8389 144.131 32.1831 141.915 28.5503H147.305C149.28 31.7868 151.256 35.1362 152.873 37.6333L155.449 41.8909ZM201.557 2.09646H217.725C216.826 3.51566 210.778 13.5069 204.97 23.101C201.557 28.7209 197.784 35.0225 193.533 41.8909H188.143C188.623 41.1534 193.953 32.24 199.222 23.612C202.275 18.559 205.748 12.8263 209.641 6.5247H204.251C196.707 18.7865 192.335 26.11 185.449 37.4636C185.029 36.782 163.772 2.15334 163.832 2.09646H180L188.144 15.3802L185.449 19.8075L177.305 6.5247H171.916C173.114 8.34113 184.311 26.8476 185.449 28.6072L197.186 9.30622L201.557 2.09646ZM237.725 41.8909H223.713V2.09646H237.725V33.0354H233.054V6.5247H228.384V37.4636H237.724L237.725 41.8909ZM275.689 28.6072L278.383 24.1799L286.527 37.4636H291.917C290.719 35.6472 279.341 17.1967 278.383 15.3802L266.647 34.6821L262.275 41.8909H246.108C247.006 40.4717 253.054 30.4805 258.862 20.8873C262.275 15.2674 266.048 8.96588 270.299 2.09741H275.689L264.551 20.3754L254.191 37.4636H259.581C266.946 25.145 271.557 17.8783 278.383 6.5247C278.803 7.20634 299.88 41.8341 300 41.8909H283.832L275.689 28.6072Z" fill="white"/>
</svg>
